<svg width="18" height="12" viewBox="0 0 18 12" fill="none" xmlns="http://www.w3.org/2000/svg">
<path d="M8.99998 2.5C8.66877 2.50518 8.34002 2.5578 8.02373 2.65625C8.17003 2.91354 8.24793 3.20403 8.24998 3.5C8.24998 3.72981 8.20472 3.95738 8.11677 4.1697C8.02883 4.38202 7.89992 4.57493 7.73742 4.73744C7.57492 4.89994 7.382 5.02884 7.16968 5.11679C6.95736 5.20474 6.7298 5.25 6.49998 5.25C6.20402 5.24795 5.91352 5.17005 5.65623 5.02375C5.45324 5.72775 5.4769 6.47777 5.72386 7.16757C5.97081 7.85738 6.42855 8.452 7.03222 8.8672C7.6359 9.28241 8.35491 9.49715 9.08741 9.48101C9.81991 9.46487 10.5288 9.21867 11.1136 8.77728C11.6984 8.33589 12.1295 7.72169 12.3458 7.02168C12.5621 6.32167 12.5528 5.57133 12.319 4.87696C12.0852 4.18258 11.6388 3.57937 11.0431 3.15277C10.4475 2.72616 9.73266 2.49779 8.99998 2.5ZM17.8912 5.54375C16.1965 2.23719 12.8415 0 8.99998 0C5.15842 0 1.80248 2.23875 0.108733 5.54406C0.037246 5.68547 0 5.8417 0 6.00016C0 6.15861 0.037246 6.31484 0.108733 6.45625C1.80342 9.76281 5.15842 12 8.99998 12C12.8415 12 16.1975 9.76125 17.8912 6.45594C17.9627 6.31453 18 6.1583 18 5.99984C18 5.84139 17.9627 5.68516 17.8912 5.54375ZM8.99998 10.5C5.91717 10.5 3.09092 8.78125 1.56467 6C3.09092 3.21875 5.91686 1.5 8.99998 1.5C12.0831 1.5 14.909 3.21875 16.4353 6C14.9094 8.78125 12.0831 10.5 8.99998 10.5Z" fill="#C40B83"/>
</svg>
