<svg width="16" height="12" viewBox="0 0 16 12" fill="none" xmlns="http://www.w3.org/2000/svg">
<path d="M5 5C5 4.46957 5.21071 3.96086 5.58579 3.58579C5.96086 3.21071 6.46957 3 7 3C7.53043 3 8.03914 3.21071 8.41421 3.58579C8.78929 3.96086 9 4.46957 9 5C9 5.53043 8.78929 6.03914 8.41421 6.41421C8.03914 6.78929 7.53043 7 7 7C6.46957 7 5.96086 6.78929 5.58579 6.41421C5.21071 6.03914 5 5.53043 5 5ZM7 4C6.73478 4 6.48043 4.10536 6.29289 4.29289C6.10536 4.48043 6 4.73478 6 5C6 5.26522 6.10536 5.51957 6.29289 5.70711C6.48043 5.89464 6.73478 6 7 6C7.26522 6 7.51957 5.89464 7.70711 5.70711C7.89464 5.51957 8 5.26522 8 5C8 4.73478 7.89464 4.48043 7.70711 4.29289C7.51957 4.10536 7.26522 4 7 4ZM1.5 0C1.10218 0 0.720644 0.158035 0.43934 0.43934C0.158035 0.720644 0 1.10218 0 1.5V8.5C0 8.89782 0.158035 9.27936 0.43934 9.56066C0.720644 9.84196 1.10218 10 1.5 10H12.5C12.8978 10 13.2794 9.84196 13.5607 9.56066C13.842 9.27936 14 8.89782 14 8.5V1.5C14 1.10218 13.842 0.720644 13.5607 0.43934C13.2794 0.158035 12.8978 0 12.5 0H1.5ZM1 1.5C1 1.36739 1.05268 1.24021 1.14645 1.14645C1.24021 1.05268 1.36739 1 1.5 1H3V2C3 2.26522 2.89464 2.51957 2.70711 2.70711C2.51957 2.89464 2.26522 3 2 3H1V1.5ZM1 4H2C2.53043 4 3.03914 3.78929 3.41421 3.41421C3.78929 3.03914 4 2.53043 4 2V1H10V2C10 2.53043 10.2107 3.03914 10.5858 3.41421C10.9609 3.78929 11.4696 4 12 4H13V6H12C11.4696 6 10.9609 6.21071 10.5858 6.58579C10.2107 6.96086 10 7.46957 10 8V9H4V8C4 7.46957 3.78929 6.96086 3.41421 6.58579C3.03914 6.21071 2.53043 6 2 6H1V4ZM11 1H12.5C12.6326 1 12.7598 1.05268 12.8536 1.14645C12.9473 1.24021 13 1.36739 13 1.5V3H12C11.7348 3 11.4804 2.89464 11.2929 2.70711C11.1054 2.51957 11 2.26522 11 2V1ZM13 7V8.5C13 8.63261 12.9473 8.75979 12.8536 8.85355C12.7598 8.94732 12.6326 9 12.5 9H11V8C11 7.73478 11.1054 7.48043 11.2929 7.29289C11.4804 7.10536 11.7348 7 12 7H13ZM3 9H1.5C1.36739 9 1.24021 8.94732 1.14645 8.85355C1.05268 8.75979 1 8.63261 1 8.5V7H2C2.26522 7 2.51957 7.10536 2.70711 7.29289C2.89464 7.48043 3 7.73478 3 8V9ZM15 8.5C15 9.16304 14.7366 9.79893 14.2678 10.2678C13.7989 10.7366 13.163 11 12.5 11H2.085C2.18844 11.2926 2.38008 11.5459 2.63351 11.725C2.88694 11.9041 3.18967 12.0002 3.5 12H12.5C13.4283 12 14.3185 11.6313 14.9749 10.9749C15.6313 10.3185 16 9.42826 16 8.5V3.5C16.0002 3.18967 15.9041 2.88694 15.725 2.63351C15.5459 2.38008 15.2926 2.18844 15 2.085V8.5Z" fill="#C40B83"/>
</svg>
